
<svg width="15px" height="22px" viewBox="0 0 15 22" version="1.1" xmlns="http://www.w3.org/2000/svg" xmlns:xlink="http://www.w3.org/1999/xlink">
    <!-- Generator: Sketch 44.1 (41455) - http://www.bohemiancoding.com/sketch -->
    <desc>Created with Sketch.</desc>
    <defs></defs>
    <g id="Symbols" stroke="none" stroke-width="1" fill="none" fill-rule="evenodd">
        <g id="Icon_Opportunities" fill="#40B4FA">
            <g>
                <path d="M10.8656471,19.5281471 L3.95152941,19.5281471 C3.46358824,19.5281471 3.06917647,19.1328529 3.06917647,18.6457941 C3.06917647,18.1587353 3.46358824,17.7634412 3.95152941,17.7634412 L10.8656471,17.7634412 C11.3535882,17.7634412 11.748,18.1587353 11.748,18.6457941 C11.748,19.1328529 11.3535882,19.5281471 10.8656471,19.5281471" id="Fill-4"></path>
                <path d="M10.0298824,21.4651765 L4.78782353,21.4651765 C4.29988235,21.4651765 3.90547059,21.0698824 3.90547059,20.5828235 C3.90547059,20.0957647 4.29988235,19.7004706 4.78782353,19.7004706 L10.0298824,19.7004706 C10.5178235,19.7004706 10.9122353,20.0957647 10.9122353,20.5828235 C10.9122353,21.0698824 10.5178235,21.4651765 10.0298824,21.4651765" id="Fill-6"></path>
                <polygon id="Fill-8" points="5.82829412 16.5626471 4.71123529 7.34382353 5.58741176 7.23794118 6.70358824 16.4567647"></polygon>
                <polygon id="Fill-10" points="8.98897059 16.5626471 8.11367647 16.4567647 9.22985294 7.23794118 10.1060294 7.34382353"></polygon>
                <path d="M8.97864706,9.55729412 C8.70776471,9.55729412 8.541,9.40023529 8.43423529,9.23964706 C8.32747059,9.40023529 8.15982353,9.55729412 7.88982353,9.55729412 C7.62247059,9.55729412 7.45482353,9.40288235 7.34805882,9.24317647 C7.24129412,9.40288235 7.07629412,9.55729412 6.80717647,9.55729412 C6.53982353,9.55729412 6.37482353,9.40376471 6.26805882,9.24494118 C6.16129412,9.40376471 5.99541176,9.55729412 5.72805882,9.55729412 C5.30629412,9.55729412 5.13688235,9.17435294 5.05482353,8.99082353 C5.03541176,8.94847059 5.00805882,8.88405882 4.99394118,8.86464706 C5.01335294,8.892 5.08747059,8.94847059 5.18717647,8.94847059 L5.18717647,8.06611765 C5.45452941,8.06611765 5.62129412,8.21876471 5.72805882,8.37847059 C5.83305882,8.21876471 6.00070588,8.06611765 6.26805882,8.06611765 C6.53452941,8.06611765 6.70041176,8.21964706 6.80717647,8.37935294 C6.91394118,8.21964706 7.07982353,8.06611765 7.34629412,8.06611765 C7.61717647,8.06611765 7.78394118,8.22141176 7.88982353,8.382 C7.99658824,8.22141176 8.16335294,8.06611765 8.43423529,8.06611765 C8.70423529,8.06611765 8.87188235,8.22229412 8.97864706,8.38376471 C9.08541176,8.22229412 9.25217647,8.06611765 9.52305882,8.06611765 L9.52305882,8.94847059 C9.62276471,8.94847059 9.69511765,8.89288235 9.71629412,8.86552941 C9.70217647,8.88494118 9.67305882,8.94935294 9.65452941,8.99170588 C9.57158824,9.17523529 9.40041176,9.55729412 8.97864706,9.55729412" id="Fill-12"></path>
                <path d="M4.97179412,15.7979118 L9.86091176,15.7979118 C9.90591176,15.0408529 10.0726765,13.9979118 10.6126765,13.2770294 C12.9456176,10.2735 13.0523824,7.43320588 13.0523824,7.40497059 C13.0523824,4.29644118 10.5209118,1.76497059 7.40885294,1.76497059 C4.29591176,1.76497059 1.76444118,4.29644118 1.76444118,7.4085 C1.76444118,7.43320588 1.87473529,10.2752647 4.19444118,13.2637941 C4.74238235,13.9926176 4.91973529,15.0408529 4.97179412,15.7979118 M10.7415,17.5626176 L4.10002941,17.5626176 C3.8565,17.5626176 3.62620588,17.4620294 3.45855882,17.2855588 C3.29179412,17.1082059 3.20532353,16.8699706 3.21944118,16.6273235 C3.25561765,16.0087941 3.17091176,14.8387941 2.7915,14.3358529 C0.0323823529,10.7799706 -0.000264705882,7.44202941 -0.000264705882,7.4085 C-0.000264705882,3.32320588 3.32444118,0.000264705882 7.40885294,0.000264705882 C11.4950294,0.000264705882 14.8170882,3.32320588 14.8170882,7.4085 C14.8170882,7.44202941 14.7862059,10.7808529 12.0165,14.3455588 C11.6379706,14.8520294 11.5859118,16.0970294 11.6220882,16.6185 C11.6397353,16.8629118 11.5532647,17.1029118 11.3865,17.2820294 C11.2206176,17.4602647 10.9859118,17.5626176 10.7415,17.5626176" id="Fill-1"></path>
            </g>
        </g>
    </g>
</svg>
