
<svg width="15px" height="16px" viewBox="0 0 15 16" version="1.1" xmlns="http://www.w3.org/2000/svg" xmlns:xlink="http://www.w3.org/1999/xlink">
    <!-- Generator: Sketch 44.1 (41455) - http://www.bohemiancoding.com/sketch -->
    <desc>Created with Sketch.</desc>
    <defs></defs>
    <g id="Symbols" stroke="none" stroke-width="1" fill="none" fill-rule="evenodd">
        <g id="Icon_Leads" fill="#40B4FA">
            <g>
                <path d="M0.625,15.3753125 C0.465,15.3753125 0.305,15.3140625 0.183125,15.1921875 C-0.06125,14.9478125 -0.06125,14.5528125 0.183125,14.3084375 L13.50125,0.9903125 C13.745,0.7465625 14.140625,0.7465625 14.385,0.9903125 C14.62875,1.2346875 14.62875,1.6303125 14.385,1.8746875 L1.066875,15.1921875 C0.945,15.3140625 0.785,15.3753125 0.625,15.3753125" id="Fill-1"></path>
                <path d="M14.2309375,13.8964375 C13.8853125,13.8964375 13.6059375,13.6164375 13.6059375,13.2714375 L13.6059375,1.8751875 L2.2096875,1.8751875 C1.8640625,1.8751875 1.5846875,1.5951875 1.5846875,1.2501875 C1.5846875,0.9045625 1.8640625,0.6251875 2.2096875,0.6251875 L14.2309375,0.6251875 C14.5765625,0.6251875 14.8559375,0.9045625 14.8559375,1.2501875 L14.8559375,13.2714375 C14.8559375,13.6164375 14.5765625,13.8964375 14.2309375,13.8964375" id="Fill-4"></path>
            </g>
        </g>
    </g>
</svg>
