
<svg width="20px" height="20px" viewBox="0 0 20 20" version="1.1" xmlns="http://www.w3.org/2000/svg" xmlns:xlink="http://www.w3.org/1999/xlink">
    <!-- Generator: Sketch 44.1 (41455) - http://www.bohemiancoding.com/sketch -->
    <desc>Created with Sketch.</desc>
    <defs></defs>
    <g id="Symbols" stroke="none" stroke-width="1" fill="none" fill-rule="evenodd">
        <g id="Icon_Contracts" fill="#40B4FA">
            <g>
                <path d="M8.92576923,13.4563077 L8.82807692,15.1055385 L10.475,15.0086154 L18.0811538,7.39938462 L16.5311538,5.84861538 L8.92576923,13.4563077 Z M8.00961538,16.6932308 C7.80653846,16.6932308 7.61115385,16.6132308 7.46576923,16.4678462 C7.31038462,16.3124615 7.22961538,16.0986154 7.24192308,15.8786154 L7.40653846,13.074 C7.41884615,12.8855385 7.49884615,12.7078462 7.63038462,12.5755385 L15.9873077,4.21707692 C16.2757692,3.92861538 16.7865385,3.92861538 17.075,4.21707692 L19.7126923,6.85553846 C20.0134615,7.15630769 20.0134615,7.64246154 19.7126923,7.94323077 L11.355,16.3024615 C11.2226923,16.4355385 11.0457692,16.5155385 10.8565385,16.5263077 L8.05423077,16.6916923 C8.03961538,16.6924615 8.02423077,16.6932308 8.00961538,16.6932308 L8.00961538,16.6932308 Z" id="Fill-1"></path>
                <path d="M17.6817692,9.00692308 C17.5840769,9.00692308 17.4848462,8.96923077 17.4102308,8.89461538 L15.0379231,6.52230769 C14.8871538,6.37153846 14.8871538,6.12846154 15.0379231,5.97769231 C15.1879231,5.82769231 15.431,5.82769231 15.5817692,5.97769231 L17.9540769,8.35 C18.1040769,8.50076923 18.1040769,8.74384615 17.9540769,8.89461538 C17.8786923,8.96923077 17.781,9.00692308 17.6817692,9.00692308" id="Fill-3"></path>
                <path d="M8.448,13.9580769 C8.39415385,13.9580769 8.34107692,13.9611538 8.28569231,13.9657692 C8.23184615,13.9726923 8.18646154,13.9880769 8.13723077,13.9973077 L8.02107692,15.9373077 L9.88415385,15.825 C9.90107692,15.7542308 9.91876923,15.6834615 9.928,15.6088462 C10.0118462,14.6642308 9.36261538,13.9580769 8.448,13.9580769" id="Fill-5"></path>
                <path d="M12.4774615,19.6484615 L1.75207692,19.6484615 C0.785923077,19.6484615 -0.000230769231,18.8615385 -0.000230769231,17.8961538 L-0.000230769231,3.50461538 C-0.000230769231,3.07923077 0.344384615,2.73538462 0.769,2.73538462 C1.19438462,2.73538462 1.53823077,3.07923077 1.53823077,3.50461538 L1.53823077,17.8961538 C1.53823077,18.0161538 1.63284615,18.11 1.75207692,18.11 L12.4774615,18.11 C12.5959231,18.11 12.6920769,18.0138462 12.6920769,17.8961538 L12.6920769,13.3584615 C12.6920769,12.9330769 13.0366923,12.5892308 13.4613077,12.5892308 C13.8866923,12.5892308 14.2305385,12.9330769 14.2305385,13.3584615 L14.2305385,17.8961538 C14.2305385,18.8615385 13.4451538,19.6484615 12.4774615,19.6484615" id="Fill-7"></path>
                <path d="M13.4615385,8.55092308 C13.0361538,8.55092308 12.6923077,8.20707692 12.6923077,7.78169231 L12.6923077,5.74015385 C12.6923077,5.62169231 12.5961538,5.52553846 12.4776923,5.52553846 C12.0523077,5.52553846 11.7084615,5.18169231 11.7084615,4.75630769 C11.7084615,4.33169231 12.0523077,3.98707692 12.4776923,3.98707692 C13.4453846,3.98707692 14.2307692,4.774 14.2307692,5.74015385 L14.2307692,7.78169231 C14.2307692,8.20707692 13.8869231,8.55092308 13.4615385,8.55092308" id="Fill-10"></path>
                <path d="M12.3287692,5.52507692 L2.37646154,5.52507692 C1.06646154,5.52507692 0.000307692308,4.45815385 0.000307692308,3.14738462 C0.000307692308,1.83584615 1.06646154,0.768923077 2.37646154,0.768923077 L13.4618462,0.768923077 C13.8864615,0.768923077 14.2310769,1.11353846 14.2310769,1.53815385 C14.2310769,1.96353846 13.8864615,2.30738462 13.4618462,2.30738462 L2.37646154,2.30738462 C1.91569231,2.30738462 1.53876923,2.68507692 1.53876923,3.14738462 C1.53876923,3.61046154 1.91569231,3.98661538 2.37646154,3.98661538 L12.3287692,3.98661538 C12.7541538,3.98661538 13.098,4.33046154 13.098,4.75584615 C13.098,5.18123077 12.7541538,5.52507692 12.3287692,5.52507692" id="Fill-12"></path>
                <path d="M8.26776923,8.35861538 L3.55623077,8.35861538 C3.34469231,8.35861538 3.17161538,8.18630769 3.17161538,7.974 C3.17161538,7.76169231 3.34469231,7.58938462 3.55623077,7.58938462 L8.26776923,7.58938462 C8.48084615,7.58938462 8.65238462,7.76169231 8.65238462,7.974 C8.65238462,8.18630769 8.48084615,8.35861538 8.26776923,8.35861538" id="Fill-15"></path>
                <path d="M8.26776923,10.474 L3.55623077,10.474 C3.34469231,10.474 3.17161538,10.3016923 3.17161538,10.0893846 C3.17161538,9.87707692 3.34469231,9.70476923 3.55623077,9.70476923 L8.26776923,9.70476923 C8.48084615,9.70476923 8.65238462,9.87707692 8.65238462,10.0893846 C8.65238462,10.3016923 8.48084615,10.474 8.26776923,10.474 L36.0999431,21.7465992" id="Fill-17"></path>
            </g>
        </g>
    </g>
</svg>
