
<svg width="26px" height="19px" viewBox="0 0 26 19" version="1.1" xmlns="http://www.w3.org/2000/svg" xmlns:xlink="http://www.w3.org/1999/xlink">
    <!-- Generator: Sketch 44.1 (41455) - http://www.bohemiancoding.com/sketch -->
    <desc>Created with Sketch.</desc>
    <defs></defs>
    <g id="Symbols" stroke="none" stroke-width="1" fill="none" fill-rule="evenodd">
        <g id="Icon_AccountTeam" fill="#40B4FA">
            <g>
                <path d="M12.6377013,1.11342825 C11.2587776,1.11342825 10.1363,2.50076009 10.1363,4.20759865 C10.1363,5.91583857 11.2587776,7.30457175 12.6377013,7.30457175 C14.0166251,7.30457175 15.1363,5.91583857 15.1363,4.20759865 C15.1363,2.50076009 14.0166251,1.11342825 12.6377013,1.11342825 M12.6373,8.418 C10.5513,8.418 8.8523,6.529 8.8523,4.208 C8.8523,1.888 10.5513,0 12.6373,0 C14.7233,0 16.4203,1.888 16.4203,4.208 C16.4203,6.529 14.7233,8.418 12.6373,8.418" id="Fill-1"></path>
                <path d="M7.56256962,16.8570407 L17.5736863,16.8570407 L17.7670341,13.6163195 C17.8009547,13.0685016 17.3283269,12.0434279 16.6058169,11.7432186 C14.0221935,10.691203 11.1287614,10.6873542 8.52365491,11.7457845 C7.81245179,12.0434279 7.33756259,13.0710675 7.37035256,13.6150366 C7.43254043,14.6862963 7.49812037,15.7703856 7.56256962,16.8570407 M17.9282,18.206 L7.2092,18.206 C6.6842,18.206 6.2482,17.8 6.2112,17.275 C6.1292,16.115 6.0512,14.954 5.9752,13.813 C5.8792,12.411 6.9262,10.854 8.3072,10.343 C11.0612,9.354 14.0842,9.359 16.8212,10.34 C18.2132,10.851 19.2602,12.409 19.1622,13.816 L18.9262,17.275 C18.8892,17.8 18.4542,18.206 17.9282,18.206" id="Fill-3"></path>
                <path d="M24.4127,16.581 L20.1447,16.581 C19.8677,16.581 19.6447,16.357 19.6447,16.081 C19.6447,15.805 19.8677,15.581 20.1447,15.581 L23.9457,15.581 L24.1197,13.061 C24.1567,12.513 23.6747,11.683 22.9947,11.434 C22.0237,11.086 21.0047,10.9 19.9657,10.883 C19.6877,10.878 19.4697,10.65 19.4727,10.374 C19.4787,10.101 19.7017,9.883 19.9727,9.883 L19.9827,9.883 C21.1317,9.902 22.2587,10.107 23.3347,10.493 C24.3757,10.875 25.1897,12.082 25.1177,13.129 L24.9127,16.115 C24.8927,16.378 24.6767,16.581 24.4127,16.581" id="Fill-7"></path>
                <path d="M21.1295,3.7949 C20.2075,3.7949 19.4575,4.6919 19.4575,5.7959 C19.4575,6.8989 20.2075,7.7979 21.1295,7.7979 C22.0495,7.7979 22.7975,6.8989 22.7975,5.7959 C22.7975,4.6919 22.0495,3.7949 21.1295,3.7949 M21.1295,8.7979 C19.6565,8.7979 18.4575,7.4509 18.4575,5.7959 C18.4575,4.1419 19.6565,2.7949 21.1295,2.7949 C22.6005,2.7949 23.7975,4.1419 23.7975,5.7959 C23.7975,7.4509 22.6005,8.7979 21.1295,8.7979" id="Fill-10"></path>
                <path d="M4.9772,16.581 L0.7072,16.581 C0.4462,16.581 0.2272,16.378 0.2092,16.115 L0.0042,13.128 C-0.0678,12.082 0.7472,10.875 1.7842,10.494 C2.8642,10.107 3.9912,9.902 5.1392,9.883 C5.4282,9.921 5.6432,10.098 5.6492,10.374 C5.6532,10.65 5.4342,10.878 5.1572,10.883 C4.1182,10.9 3.0982,11.086 2.1252,11.435 C1.4482,11.683 0.9652,12.513 1.0022,13.061 L1.1742,15.581 L4.9772,15.581 C5.2542,15.581 5.4772,15.805 5.4772,16.081 C5.4772,16.357 5.2542,16.581 4.9772,16.581" id="Fill-12"></path>
                <path d="M3.9928,3.7949 C3.0728,3.7949 2.3248,4.6919 2.3248,5.7959 C2.3248,6.8989 3.0728,7.7979 3.9928,7.7979 C4.9148,7.7979 5.6648,6.8989 5.6648,5.7959 C5.6648,4.6919 4.9148,3.7949 3.9928,3.7949 M3.9928,8.7979 C2.5218,8.7979 1.3248,7.4509 1.3248,5.7959 C1.3248,4.1419 2.5218,2.7949 3.9928,2.7949 C5.4658,2.7949 6.6648,4.1419 6.6648,5.7959 C6.6648,7.4509 5.4658,8.7979 3.9928,8.7979" id="Fill-15"></path>
            </g>
        </g>
    </g>
</svg>
