
<svg width="15px" height="18px" viewBox="0 0 15 18" version="1.1" xmlns="http://www.w3.org/2000/svg" xmlns:xlink="http://www.w3.org/1999/xlink">
    <!-- Generator: Sketch 44.1 (41455) - http://www.bohemiancoding.com/sketch -->
    <desc>Created with Sketch.</desc>
    <defs></defs>
    <g id="Symbols" stroke="none" stroke-width="1" fill="none" fill-rule="evenodd">
        <g id="Icon_Invoices" fill="#40B4FA">
            <g>
                <path d="M8.94639474,17.3907632 C8.72771053,17.3907632 8.55165789,17.2139211 8.55165789,16.9960263 L8.55165789,12.2591842 C8.55165789,12.0412895 8.72771053,11.8644474 8.94639474,11.8644474 L13.6832368,11.8644474 C13.9003421,11.8644474 14.0779737,12.0412895 14.0779737,12.2591842 C14.0779737,12.4770789 13.9003421,12.6539211 13.6832368,12.6539211 L9.34113158,12.6539211 L9.34113158,16.9960263 C9.34113158,17.2139211 9.1635,17.3907632 8.94639474,17.3907632" id="Fill-1"></path>
                <path d="M1.57894737,16.2065526 L8.61947368,16.2065526 L12.8936842,11.9323421 L12.8936842,1.57918421 L1.57894737,1.57918421 L1.57894737,16.2065526 Z M8.94631579,17.7855 L0.789473684,17.7855 C0.352894737,17.7855 0,17.4326053 0,16.9960263 L0,0.789710526 C0,0.353131579 0.352894737,0.000236842105 0.789473684,0.000236842105 L13.6831579,0.000236842105 C14.1197368,0.000236842105 14.4726316,0.353131579 14.4726316,0.789710526 L14.4726316,12.2591842 C14.4726316,12.4691842 14.3897368,12.6697105 14.2413158,12.8173421 L9.50447368,17.5541842 C9.35684211,17.7026053 9.15631579,17.7855 8.94631579,17.7855 L8.94631579,17.7855 Z" id="Fill-3"></path>
                <path d="M8.09060526,4.17868421 L3.45244737,4.17868421 C3.23534211,4.17868421 3.05771053,4.00184211 3.05771053,3.78394737 C3.05771053,3.56605263 3.23534211,3.38921053 3.45244737,3.38921053 L8.09060526,3.38921053 C8.30928947,3.38921053 8.48534211,3.56605263 8.48534211,3.78394737 C8.48534211,4.00184211 8.30928947,4.17868421 8.09060526,4.17868421" id="Fill-5"></path>
                <path d="M11.1498158,6.08684211 L3.45244737,6.08684211 C3.23534211,6.08684211 3.05771053,5.91 3.05771053,5.69210526 C3.05771053,5.47421053 3.23534211,5.29736842 3.45244737,5.29736842 L11.1498158,5.29736842 C11.3685,5.29736842 11.5445526,5.47421053 11.5445526,5.69210526 C11.5445526,5.91 11.3685,6.08684211 11.1498158,6.08684211" id="Fill-7"></path>
                <path d="M11.1498158,7.995 L3.45244737,7.995 C3.23534211,7.995 3.05771053,7.81815789 3.05771053,7.60026316 C3.05771053,7.38236842 3.23534211,7.20552632 3.45244737,7.20552632 L11.1498158,7.20552632 C11.3685,7.20552632 11.5445526,7.38236842 11.5445526,7.60026316 C11.5445526,7.81815789 11.3685,7.995 11.1498158,7.995" id="Fill-9"></path>
                <path d="M6.67665789,9.90315789 L3.45244737,9.90315789 C3.23534211,9.90315789 3.05771053,9.72631579 3.05771053,9.50842105 C3.05771053,9.29052632 3.23534211,9.11368421 3.45244737,9.11368421 L6.67665789,9.11368421 C6.89376316,9.11368421 7.07139474,9.29052632 7.07139474,9.50842105 C7.07139474,9.72631579 6.89376316,9.90315789 6.67665789,9.90315789" id="Fill-11"></path>
            </g>
        </g>
    </g>
</svg>
