
<svg width="17px" height="17px" viewBox="0 0 17 17" version="1.1" xmlns="http://www.w3.org/2000/svg" xmlns:xlink="http://www.w3.org/1999/xlink">
    <!-- Generator: Sketch 44.1 (41455) - http://www.bohemiancoding.com/sketch -->
    <desc>Created with Sketch.</desc>
    <defs>
        <polygon id="path-1" points="8.4181875 16.8374375 16.836375 16.8374375 16.836375 0.000354166667 0 0.000354166667 0 8.41889583 0 16.8374375 8.4181875 16.8374375"></polygon>
    </defs>
    <g id="Symbols" stroke="none" stroke-width="1" fill="none" fill-rule="evenodd">
        <g id="Icon_Overview">
            <g>
                <mask id="mask-2" fill="white">
                    <use xlink:href="#path-1"></use>
                </mask>
                <g id="Clip-2"></g>
                <path d="M1.41666667,15.4207708 L15.4204167,15.4207708 L15.4204167,1.41702083 L1.41666667,1.41702083 L1.41666667,15.4207708 Z M16.12875,16.8374375 L0.708333333,16.8374375 C0.316625,16.8374375 0,16.5201042 0,16.1291042 L0,0.7086875 C0,0.316979167 0.316625,0.000354166667 0.708333333,0.000354166667 L16.12875,0.000354166667 C16.51975,0.000354166667 16.8370833,0.316979167 16.8370833,0.7086875 L16.8370833,16.1291042 C16.8370833,16.5201042 16.51975,16.8374375 16.12875,16.8374375 L16.12875,16.8374375 Z" id="Fill-1" fill="#40B4FA" mask="url(#mask-2)"></path>
                <path d="M15.8765833,5.19109167 L0.959791667,5.19109167 C0.765,5.19109167 0.605625,5.032425 0.605625,4.836925 C0.605625,4.641425 0.765,4.48275833 0.959791667,4.48275833 L15.8765833,4.48275833 C16.071375,4.48275833 16.23075,4.641425 16.23075,4.836925 C16.23075,5.032425 16.071375,5.19109167 15.8765833,5.19109167" id="Fill-3" fill="#40B4FA" mask="url(#mask-2)"></path>
                <path d="M3.2178875,2.0793125 C2.72559583,2.0793125 2.3253875,2.47952083 2.3253875,2.9718125 C2.3253875,3.4648125 2.72559583,3.8643125 3.2178875,3.8643125 C3.71017917,3.8643125 4.1103875,3.4648125 4.1103875,2.9718125 C4.1103875,2.47952083 3.71017917,2.0793125 3.2178875,2.0793125" id="Fill-4" fill="#40B4FA" mask="url(#mask-2)"></path>
                <path d="M5.63479167,2.0793125 C5.1425,2.0793125 4.74229167,2.47952083 4.74229167,2.9718125 C4.74229167,3.4648125 5.1425,3.8643125 5.63479167,3.8643125 C6.1285,3.8643125 6.52870833,3.4648125 6.52870833,2.9718125 C6.52870833,2.47952083 6.1285,2.0793125 5.63479167,2.0793125" id="Fill-5" fill="#40B4FA" mask="url(#mask-2)"></path>
                <path d="M8.0531125,2.0793125 C7.55940417,2.0793125 7.1606125,2.47952083 7.1606125,2.9718125 C7.1606125,3.4648125 7.55940417,3.8643125 8.0531125,3.8643125 C8.54540417,3.8643125 8.9456125,3.4648125 8.9456125,2.9718125 C8.9456125,2.47952083 8.54540417,2.0793125 8.0531125,2.0793125" id="Fill-6" fill="#40B4FA" mask="url(#mask-2)"></path>
                <path d="M15.8765833,7.84734167 L0.959791667,7.84734167 C0.765,7.84734167 0.605625,7.688675 0.605625,7.493175 C0.605625,7.297675 0.765,7.13900833 0.959791667,7.13900833 L15.8765833,7.13900833 C16.071375,7.13900833 16.23075,7.297675 16.23075,7.493175 C16.23075,7.688675 16.071375,7.84734167 15.8765833,7.84734167" id="Fill-7" fill="#40B4FA" mask="url(#mask-2)"></path>
                <path d="M5.4079125,16.5019708 C5.2612875,16.5019708 5.1422875,16.3829708 5.1422875,16.2363458 L5.1422875,7.61167917 C5.1422875,7.46505417 5.2612875,7.34605417 5.4079125,7.34605417 C5.5545375,7.34605417 5.6735375,7.46505417 5.6735375,7.61167917 L5.6735375,16.2363458 C5.6735375,16.3829708 5.5545375,16.5019708 5.4079125,16.5019708" id="Fill-8" fill="#40B4FA" mask="url(#mask-2)"></path>
            </g>
        </g>
    </g>
</svg>
