
<svg width="14px" height="18px" viewBox="0 0 14 18" version="1.1" xmlns="http://www.w3.org/2000/svg" xmlns:xlink="http://www.w3.org/1999/xlink">
    <!-- Generator: Sketch 44.1 (41455) - http://www.bohemiancoding.com/sketch -->
    <desc>Created with Sketch.</desc>
    <defs></defs>
    <g id="Symbols" stroke="none" stroke-width="1" fill="none" fill-rule="evenodd">
        <g id="Icon_Contacts" fill="#40B4FA">
            <g>
                <path d="M1.49076461,16.5904613 L11.953662,16.5904613 L12.1635102,13.4878237 C12.207775,12.8492623 11.6183968,11.8451061 10.8183508,11.5508269 C8.19278978,10.6106088 5.25819461,10.60733 2.61951812,11.5524663 C1.82848897,11.8451061 1.23747134,12.8517215 1.27927703,13.4878237 L1.49076461,16.5904613 Z M12.4116222,17.9990222 L1.03195556,17.9990222 C0.623622222,17.9990222 0.284511111,17.6824667 0.255733333,17.2749111 L0.00528888889,13.6038 C-0.0841555556,12.2520222 0.965066667,10.6941333 2.2974,10.2018 C5.15495556,9.17746667 8.2964,9.18135556 11.1407333,10.1994667 C12.4831778,10.6933556 13.5331778,12.2520222 13.4375111,13.6061333 L13.1878444,17.2733556 C13.1606222,17.6824667 12.8222889,17.9990222 12.4116222,17.9990222 L12.4116222,17.9990222 Z" id="Fill-3"></path>
                <path d="M6.78665556,1.16666667 C5.40898695,1.16666667 4.28756649,2.52112116 4.28756649,4.18450198 C4.28756649,5.84788281 5.40898695,7.20144444 6.78665556,7.20144444 C8.16432416,7.20144444 9.28574462,5.84788281 9.28574462,4.18450198 C9.28574462,2.52112116 8.16432416,1.16666667 6.78665556,1.16666667 M6.78665556,8.36811111 C4.72865556,8.36811111 3.0541,6.49133333 3.0541,4.18444444 C3.0541,1.87677778 4.72865556,0 6.78665556,0 C8.84465556,0 10.5192111,1.87677778 10.5192111,4.18444444 C10.5192111,6.49133333 8.84465556,8.36811111 6.78665556,8.36811111" id="Fill-1"></path>
            </g>
        </g>
    </g>
</svg>
