<svg width="18px" height="19px" viewBox="0 0 18 19" version="1.1" xmlns="http://www.w3.org/2000/svg" xmlns:xlink="http://www.w3.org/1999/xlink">
    <!-- Generator: Sketch 44.1 (41455) - http://www.bohemiancoding.com/sketch -->
    <desc>Created with Sketch.</desc>
    <defs></defs>
    <g id="1.-HOMEPAGE" stroke="none" stroke-width="1" fill="none" fill-rule="evenodd">
        <g id="Desktop" transform="translate(-990.000000, -220.000000)" fill="#006EB0">
            <g id="HERO" transform="translate(419.000000, 127.000000)">
                <g id="Group-4" transform="translate(0.000000, 93.000000)">
                    <g id="Page-1" transform="translate(571.000000, 0.000000)">
                        <g id="Group">
                            <g id="Group-3" transform="translate(0.000000, 0.202087)">
                                <g id="Group-7">
                                    <path d="M8.66852174,2.4066087 C4.84852174,2.40747826 1.74069565,5.51704348 1.73895652,9.33878261 C1.74069565,13.1570435 4.84678261,16.2648696 8.66678261,16.2648696 C12.4885217,16.2648696 15.598087,13.1570435 15.598087,9.33704348 C15.5963478,5.51530435 12.4885217,2.4066087 8.66852174,2.4066087 M8.66678261,18.004 C3.8893913,18.004 0.00156521739,14.1161739 -0.000173913043,9.33878261 C0.00156521739,4.55791304 3.8893913,0.668347826 8.66852174,0.667478261 C13.445913,0.667478261 17.3354783,4.55617391 17.3372174,9.33617391 C17.3372174,14.1153043 13.4476522,18.004 8.66678261,18.004" id="Fill-1"></path>
                                    <path d="M18.9962609,20.8695652 C18.7736522,20.8695652 18.5510435,20.7843478 18.3814783,20.6147826 L13.5397391,15.773913 C13.1997391,15.433913 13.1997391,14.8834783 13.5397391,14.5443478 C13.8788696,14.2043478 14.4293043,14.2043478 14.7693043,14.5443478 L19.6110435,19.3852174 C19.9510435,19.7243478 19.9510435,20.2747826 19.6110435,20.6147826 C19.4414783,20.7843478 19.2188696,20.8695652 18.9962609,20.8695652" id="Fill-6"></path>
                                </g>
                            </g>
                        </g>
                    </g>
                </g>
            </g>
        </g>
    </g>
</svg>
