
<svg width="21px" height="28px" viewBox="0 0 21 28" version="1.1" xmlns="http://www.w3.org/2000/svg" xmlns:xlink="http://www.w3.org/1999/xlink">
    <!-- Generator: Sketch 45 (43475) - http://www.bohemiancoding.com/sketch -->
    <desc>Created with Sketch.</desc>
    <defs></defs>
    <g id="2.-DASHBOARD" stroke="none" stroke-width="1" fill="none" fill-rule="evenodd">
        <g id="Desktop" transform="translate(-974.000000, -1023.000000)" fill="#006EB0">
            <g id="Icon_Contacts" transform="translate(974.000000, 1023.000000)">
                <path d="M2.29046363,25.4901732 L18.3660303,25.4901732 L18.6884485,20.7231707 C18.7564585,19.7420624 17.850917,18.1992412 16.6216978,17.7471002 C12.5876928,16.3025158 8.0788767,16.297478 4.02472055,17.7496191 C2.80935531,18.1992412 1.90129486,19.7458407 1.9655266,20.7231707 L2.29046363,25.4901732 Z M19.0696566,27.6543362 L1.58553312,27.6543362 C0.958155302,27.6543362 0.437132963,27.167969 0.392917764,26.5417862 L0.00812603648,20.9013608 C-0.129299581,18.8244415 1.48276266,16.4308458 3.52980685,15.6744074 C7.92025656,14.1005853 12.7468832,14.1065603 17.1170179,15.6708224 C19.1795971,16.4296508 20.7928544,18.8244415 20.6458687,20.9049459 L20.262272,26.5393962 C20.2204468,27.167969 19.7006195,27.6543362 19.0696566,27.6543362 L19.0696566,27.6543362 Z" id="Fill-3"></path>
                <path d="M10.4272583,1.79250805 C8.3105594,1.79250805 6.58756923,3.87353997 6.58756923,6.42921727 C6.58756923,8.98489457 8.3105594,11.0645547 10.4272583,11.0645547 C12.5439572,11.0645547 14.2669474,8.98489457 14.2669474,6.42921727 C14.2669474,3.87353997 12.5439572,1.79250805 10.4272583,1.79250805 M10.4272583,12.8570627 C7.26527412,12.8570627 4.69242757,9.97351478 4.69242757,6.42912887 C4.69242757,2.88354795 7.26527412,0 10.4272583,0 C13.5892425,0 16.1620891,2.88354795 16.1620891,6.42912887 C16.1620891,9.97351478 13.5892425,12.8570627 10.4272583,12.8570627" id="Fill-1"></path>
            </g>
        </g>
    </g>
</svg>
