
<svg width="17px" height="20px" viewBox="0 0 17 20" version="1.1" xmlns="http://www.w3.org/2000/svg" xmlns:xlink="http://www.w3.org/1999/xlink">
    <desc>Created with Sketch.</desc>
    <defs></defs>
    <g id="2.-DASHBOARD" stroke="none" stroke-width="1" fill="none" fill-rule="evenodd">
        <g id="Desktop" transform="translate(-998.000000, -1028.000000)" fill="#006EB0">
            <g id="OVERVIEW" transform="translate(20.000000, 98.000000)">
                <g id="ENGAGEMENT-TIMELINE" transform="translate(834.000000, 579.000000)">
                    <g id="Group-14-Copy" transform="translate(106.000000, 249.000000)">
                        <g id="Group-7-Copy-11" transform="translate(33.607721, 100.904762)">
                            <g id="Group-8" transform="translate(0.000000, 0.000000)">
                                <path d="M14.7384776,6.48261251 C14.9241442,4.50212915 17.4655794,3.48394909 18.7113712,3.17206453 C19.9571629,2.86017996 22.0186408,4.66002011 22.0186408,4.66002011 C22.0186408,4.66002011 24.6939709,6.55574978 21.3956076,11.2120357 C18.0972442,15.8683217 13.6975654,17.8831716 11.3211823,19.0556555 C8.9447992,20.2281393 5.49820692,19.0556555 5.49820692,19.0556555 C5.49820692,19.0556555 2.54935257,16.6137122 3.11451366,14.626898 C3.67967475,12.6400838 5.75454277,11.21342 7.72937108,11.2120357 C9.7041994,11.2106515 10.0612929,15.6779541 10.0612929,15.6779541 C10.0612929,15.6779541 13.4622119,14.3989164 14.7384776,13.3948243 C16.0147432,12.3907321 18.2939191,9.55751364 18.2939191,9.55751364 C18.2939191,9.55751364 14.552811,8.46309587 14.7384776,6.48261251 Z" id="Rectangle-18" transform="translate(13.042542, 11.356257) rotate(-19.000000) translate(-13.042542, -11.356257) "></path>
                            </g>
                        </g>
                    </g>
                </g>
            </g>
        </g>
    </g>
</svg>
