<svg viewBox="-5 0 495 207" version="1.1" xmlns="http://www.w3.org/2000/svg" xmlns:xlink="http://www.w3.org/1999/xlink">
  <desc>Created with Sketch.</desc>
  <defs>
    <path d="M181.925893,110.7643 L57.0778554,25.6185263 L322.388095,25.6185263 L181.925893,110.7643 Z M440,110.7643 L181.925893,110.7643 L440,110.7643 Z" id="path-1"></path>
    <filter x="-1.8%" y="-4.1%" width="103.2%" height="112.8%" filterUnits="objectBoundingBox" id="filter-2">
      <feMorphology radius="1.5" operator="dilate" in="SourceAlpha" result="shadowSpreadOuter1"></feMorphology>
      <feOffset dx="0" dy="2" in="shadowSpreadOuter1" result="shadowOffsetOuter1"></feOffset>
      <feMorphology radius="1.5" operator="erode" in="SourceAlpha" result="shadowInner"></feMorphology>
      <feOffset dx="0" dy="2" in="shadowInner" result="shadowInner"></feOffset>
      <feComposite in="shadowOffsetOuter1" in2="shadowInner" operator="out" result="shadowOffsetOuter1"></feComposite>
      <feGaussianBlur stdDeviation="1" in="shadowOffsetOuter1" result="shadowBlurOuter1"></feGaussianBlur>
      <feColorMatrix values="0 0 0 0 0   0 0 0 0 0   0 0 0 0 0  0 0 0 0.1 0" type="matrix" in="shadowBlurOuter1"></feColorMatrix>
    </filter>
    <circle id="path-3" cx="25" cy="25" r="25"></circle>
    <filter x="-23.0%" y="-15.0%" width="146.0%" height="150.0%" filterUnits="objectBoundingBox" id="filter-4">
      <feMorphology radius="2.5" operator="dilate" in="SourceAlpha" result="shadowSpreadOuter1"></feMorphology>
      <feOffset dx="0" dy="6" in="shadowSpreadOuter1" result="shadowOffsetOuter1"></feOffset>
      <feGaussianBlur stdDeviation="2" in="shadowOffsetOuter1" result="shadowBlurOuter1"></feGaussianBlur>
      <feComposite in="shadowBlurOuter1" in2="SourceAlpha" operator="out" result="shadowBlurOuter1"></feComposite>
      <feColorMatrix values="0 0 0 0 0   0 0 0 0 0   0 0 0 0 0  0 0 0 0.1 0" type="matrix" in="shadowBlurOuter1"></feColorMatrix>
    </filter>
    <circle id="path-5" cx="25" cy="25" r="25"></circle>
    <filter x="-23.0%" y="-15.0%" width="146.0%" height="150.0%" filterUnits="objectBoundingBox" id="filter-6">
      <feMorphology radius="2.5" operator="dilate" in="SourceAlpha" result="shadowSpreadOuter1"></feMorphology>
      <feOffset dx="0" dy="6" in="shadowSpreadOuter1" result="shadowOffsetOuter1"></feOffset>
      <feGaussianBlur stdDeviation="2" in="shadowOffsetOuter1" result="shadowBlurOuter1"></feGaussianBlur>
      <feComposite in="shadowBlurOuter1" in2="SourceAlpha" operator="out" result="shadowBlurOuter1"></feComposite>
      <feColorMatrix values="0 0 0 0 0   0 0 0 0 0   0 0 0 0 0  0 0 0 0.1 0" type="matrix" in="shadowBlurOuter1"></feColorMatrix>
    </filter>
    <circle id="path-7" cx="444" cy="115" r="45"></circle>
    <filter x="-12.8%" y="-8.3%" width="125.6%" height="127.8%" filterUnits="objectBoundingBox" id="filter-8">
      <feMorphology radius="2.5" operator="dilate" in="SourceAlpha" result="shadowSpreadOuter1"></feMorphology>
      <feOffset dx="0" dy="6" in="shadowSpreadOuter1" result="shadowOffsetOuter1"></feOffset>
      <feGaussianBlur stdDeviation="2" in="shadowOffsetOuter1" result="shadowBlurOuter1"></feGaussianBlur>
      <feComposite in="shadowBlurOuter1" in2="SourceAlpha" operator="out" result="shadowBlurOuter1"></feComposite>
      <feColorMatrix values="0 0 0 0 0   0 0 0 0 0   0 0 0 0 0  0 0 0 0.1 0" type="matrix" in="shadowBlurOuter1"></feColorMatrix>
    </filter>
    <circle id="path-9" cx="62.5" cy="62.5" r="62.5"></circle>
    <filter x="-10.4%" y="-7.2%" width="120.8%" height="122.4%" filterUnits="objectBoundingBox" id="filter-10">
      <feMorphology radius="4" operator="dilate" in="SourceAlpha" result="shadowSpreadOuter1"></feMorphology>
      <feOffset dx="0" dy="6" in="shadowSpreadOuter1" result="shadowOffsetOuter1"></feOffset>
      <feGaussianBlur stdDeviation="2" in="shadowOffsetOuter1" result="shadowBlurOuter1"></feGaussianBlur>
      <feComposite in="shadowBlurOuter1" in2="SourceAlpha" operator="out" result="shadowBlurOuter1"></feComposite>
      <feColorMatrix values="0 0 0 0 0   0 0 0 0 0   0 0 0 0 0  0 0 0 0.1 0" type="matrix" in="shadowBlurOuter1"></feColorMatrix>
    </filter>
  </defs>
  <g id="2.-DASHBOARD" stroke="none" stroke-width="1" fill="none" fill-rule="evenodd">
    <g id="Desktop" transform="translate(-283.000000, -961.000000)">
      <g id="OVERVIEW" transform="translate(20.000000, 98.000000)">
        <g id="INFLUENCERS" transform="translate(252.000000, 821.000000)">
          <g id="Influencer-Icons" transform="translate(8.000000, 45.000000)">
            <g id="Group-18">
              <g id="Line">
                <use fill="black" fill-opacity="1" filter="url(#filter-2)" xlink:href="#path-1"></use>
                <use stroke="#D1D8DE" stroke-width="3" xlink:href="#path-1"></use>
              </g>
              <text id="Joe-Johnson" font-family=".SFNSDisplay, .SF NS Display" font-size="20" font-weight="normal" fill="#000000">
                <tspan x="128.195312" y="200">Joe Johnson</tspan>
              </text>
              <text id="Stanley-Patterson" font-family=".AppleSystemUIFont" font-size="12" font-weight="normal" line-spacing="12" fill="#000000">
                <tspan x="0" y="67">Stanley Patterson</tspan>
              </text>
              <text id="Carrie-Elliott" font-family=".AppleSystemUIFont" font-size="12" font-weight="normal" line-spacing="12" fill="#000000">
                <tspan x="304.134766" y="65.0800781">Carrie </tspan>
                <tspan x="305.353516" y="80.463978">Elliott</tspan>
              </text>
              <text id="Charlotte-Douglas" font-family=".AppleSystemUIFont" font-size="16" font-weight="normal" line-spacing="18" fill="#000000">
                <tspan x="410.402344" y="182">Charlotte </tspan>
                <tspan x="414.394531" y="200">Douglas</tspan>
              </text>
              <g id="Group-2" transform="translate(29.000000, 0.000000)">
                <g id="Oval-3">
                  <use fill="black" fill-opacity="1" filter="url(#filter-4)" xlink:href="#path-3"></use>
                  <use stroke="#5B923D" stroke-width="5" fill="#86C563" fill-rule="evenodd" xlink:href="#path-3"></use>
                </g>
                <g id="Icon_Contacts" transform="translate(18.000000, 15.000000)" fill="#EDF3F8">
                  <path d="M1.64422567,18.2983029 L13.184186,18.2983029 L13.4156362,14.8762761 C13.4644577,14.1719805 12.8144083,13.0644553 11.9320045,12.7398826 C9.03616519,11.7028774 5.79947935,11.699261 2.88917439,12.7416908 C2.01671578,13.0644553 1.3648581,14.1746928 1.41096731,14.8762761 L1.64422567,18.2983029 Z M13.6892892,19.8518627 L1.13818627,19.8518627 C0.687818627,19.8518627 0.31379902,19.5027206 0.282058824,19.0532108 L0.00583333333,15.0041912 C-0.0928186275,13.5132598 1.06441176,11.795 2.53389706,11.2519853 C5.68561275,10.1222059 9.15044118,10.1264951 12.2875735,11.2494118 C13.7682108,11.7941422 14.926299,13.5132598 14.8207843,15.0067647 L14.5454167,19.0514951 C14.5153922,19.5027206 14.1422304,19.8518627 13.6892892,19.8518627 L13.6892892,19.8518627 Z" id="Fill-3"></path>
                  <path d="M7.48528186,1.28676471 C5.96579443,1.28676471 4.72893363,2.78064833 4.72893363,4.61525954 C4.72893363,6.44987074 5.96579443,7.94276961 7.48528186,7.94276961 C9.0047693,7.94276961 10.2416301,6.44987074 10.2416301,4.61525954 C10.2416301,2.78064833 9.0047693,1.28676471 7.48528186,1.28676471 M7.48528186,9.22953431 C5.21542892,9.22953431 3.36849265,7.15955882 3.36849265,4.61519608 C3.36849265,2.06997549 5.21542892,0 7.48528186,0 C9.7551348,0 11.6020711,2.06997549 11.6020711,4.61519608 C11.6020711,7.15955882 9.7551348,9.22953431 7.48528186,9.22953431" id="Fill-1"></path>
                </g>
              </g>
              <g id="Group" transform="translate(299.000000, 0.000000)">
                <g id="Oval-3">
                  <use fill="black" fill-opacity="1" filter="url(#filter-6)" xlink:href="#path-5"></use>
                  <use stroke="#9F8442" stroke-width="5" fill="#E1BA59" fill-rule="evenodd" xlink:href="#path-5"></use>
                </g>
                <g id="Icon_Contacts" transform="translate(18.000000, 15.000000)" fill="#EDF3F8">
                  <path d="M1.64422567,18.2983029 L13.184186,18.2983029 L13.4156362,14.8762761 C13.4644577,14.1719805 12.8144083,13.0644553 11.9320045,12.7398826 C9.03616519,11.7028774 5.79947935,11.699261 2.88917439,12.7416908 C2.01671578,13.0644553 1.3648581,14.1746928 1.41096731,14.8762761 L1.64422567,18.2983029 Z M13.6892892,19.8518627 L1.13818627,19.8518627 C0.687818627,19.8518627 0.31379902,19.5027206 0.282058824,19.0532108 L0.00583333333,15.0041912 C-0.0928186275,13.5132598 1.06441176,11.795 2.53389706,11.2519853 C5.68561275,10.1222059 9.15044118,10.1264951 12.2875735,11.2494118 C13.7682108,11.7941422 14.926299,13.5132598 14.8207843,15.0067647 L14.5454167,19.0514951 C14.5153922,19.5027206 14.1422304,19.8518627 13.6892892,19.8518627 L13.6892892,19.8518627 Z" id="Fill-3"></path>
                  <path d="M7.48528186,1.28676471 C5.96579443,1.28676471 4.72893363,2.78064833 4.72893363,4.61525954 C4.72893363,6.44987074 5.96579443,7.94276961 7.48528186,7.94276961 C9.0047693,7.94276961 10.2416301,6.44987074 10.2416301,4.61525954 C10.2416301,2.78064833 9.0047693,1.28676471 7.48528186,1.28676471 M7.48528186,9.22953431 C5.21542892,9.22953431 3.36849265,7.15955882 3.36849265,4.61519608 C3.36849265,2.06997549 5.21542892,0 7.48528186,0 C9.7551348,0 11.6020711,2.06997549 11.6020711,4.61519608 C11.6020711,7.15955882 9.7551348,9.22953431 7.48528186,9.22953431" id="Fill-1"></path>
                </g>
              </g>
              <g id="Oval-3">
                <use fill="black" fill-opacity="1" filter="url(#filter-8)" xlink:href="#path-7"></use>
                <use stroke="#B64F4F" stroke-width="5" fill="#FF8D8D" fill-rule="evenodd" xlink:href="#path-7"></use>
              </g>
              <path d="M430.836527,134.69604 L457.763101,134.69604 L458.303151,126.711311 C458.417068,125.067954 456.900286,122.483729 454.841344,121.726393 C448.084385,119.306714 440.532118,119.298276 433.741407,121.730612 C431.70567,122.483729 430.184669,125.074283 430.292257,126.711311 L430.836527,134.69604 Z M458.941675,138.321013 L429.655768,138.321013 C428.60491,138.321013 427.732198,137.506348 427.658137,136.457492 L427.013611,127.009779 C426.783423,123.53094 429.483627,119.521667 432.912426,118.254632 C440.26643,115.61848 448.351029,115.628489 455.671005,118.248627 C459.125825,119.519665 461.828031,123.53094 461.58183,127.015784 L460.939306,136.453489 C460.869248,137.506348 459.998538,138.321013 458.941675,138.321013 L458.941675,138.321013 Z" id="Fill-3" fill="#EDF3F8"></path>
              <path d="M444.465658,95.002451 C440.920187,95.002451 438.034178,98.4881794 438.034178,102.768939 C438.034178,107.049698 440.920187,110.533129 444.465658,110.533129 C448.011128,110.533129 450.897137,107.049698 450.897137,102.768939 C450.897137,98.4881794 448.011128,95.002451 444.465658,95.002451 M444.465658,113.53558 C439.169334,113.53558 434.859816,108.705637 434.859816,102.768791 C434.859816,96.8299428 439.169334,92 444.465658,92 C449.761981,92 454.071499,96.8299428 454.071499,102.768791 C454.071499,108.705637 449.761981,113.53558 444.465658,113.53558" id="Fill-1" fill="#EDF3F8"></path>
              <g id="Group-4" transform="translate(119.000000, 46.000000)">
                <g id="Oval-3">
                  <use fill="black" fill-opacity="1" filter="url(#filter-10)" xlink:href="#path-9"></use>
                  <use stroke="#006EB0" stroke-width="8" fill="#40B4FA" fill-rule="evenodd" xlink:href="#path-9"></use>
                </g>
                <g id="Icon_Contacts" transform="translate(38.000000, 29.000000)" fill="#EDF3F8">
                  <path d="M5.48075225,60.994343 L43.9472868,60.994343 L44.7187874,49.587587 C44.8815258,47.239935 42.7146942,43.5481844 39.7733484,42.4662754 C30.1205506,39.0095914 19.3315978,38.9975367 9.63058131,42.4723028 C6.72238593,43.5481844 4.54952699,47.248976 4.70322436,49.587587 L5.48075225,60.994343 Z M45.6309641,66.1728758 L3.79395425,66.1728758 C2.29272876,66.1728758 1.04599673,65.0090686 0.940196078,63.5107026 L0.0194444444,50.0139706 C-0.309395425,45.0441993 3.54803922,39.3166667 8.44632353,37.5066176 C18.9520425,33.7406863 30.5014706,33.7549837 40.9585784,37.4980392 C45.8940359,39.3138072 49.7543301,45.0441993 49.4026144,50.022549 L48.4847222,63.5049837 C48.3846405,65.0090686 47.140768,66.1728758 45.6309641,66.1728758 L45.6309641,66.1728758 Z" id="Fill-3"></path>
                  <path d="M24.9509395,4.28921569 C19.8859814,4.28921569 15.7631121,9.26882778 15.7631121,15.3841985 C15.7631121,21.4995691 19.8859814,26.4758987 24.9509395,26.4758987 C30.0158977,26.4758987 34.138767,21.4995691 34.138767,15.3841985 C34.138767,9.26882778 30.0158977,4.28921569 24.9509395,4.28921569 M24.9509395,30.7651144 C17.3847631,30.7651144 11.2283088,23.8651961 11.2283088,15.3839869 C11.2283088,6.8999183 17.3847631,0 24.9509395,0 C32.517116,0 38.6735703,6.8999183 38.6735703,15.3839869 C38.6735703,23.8651961 32.517116,30.7651144 24.9509395,30.7651144" id="Fill-1"></path>
                </g>
              </g>
            </g>
          </g>
        </g>
      </g>
    </g>
  </g>
</svg>
